HIERARCHY
ROOT RootJoint
{
    OFFSET   0.000000   0.000000   0.000000
    CHANNELS 6 Xposition Yposition Zposition Xrotation Yrotation Zrotation
    JOINT lHip
    {
        OFFSET   0.100000  -0.051395   0.000000
        CHANNELS 3 Xrotation Yrotation Zrotation
        JOINT lKnee
        {
            OFFSET   0.000000  -0.410000   0.000000
            CHANNELS 3 Xrotation Yrotation Zrotation
            JOINT lAnkle
            {
                OFFSET   0.000000  -0.390000   0.000000
                CHANNELS 3 Xrotation Yrotation Zrotation
                JOINT lToeJoint
                {
                    OFFSET   0.000000  -0.050000   0.130000
                    CHANNELS 3 Xrotation Yrotation Zrotation
                    End Site
                    {
                        OFFSET   0.010000   0.002000   0.060000
                    }
                }
            }
        }
    }
    JOINT rHip
    {
        OFFSET  -0.100000  -0.051395   0.000000
        CHANNELS 3 Xrotation Yrotation Zrotation
        JOINT rKnee
        {
            OFFSET   0.000000  -0.410000   0.000000
            CHANNELS 3 Xrotation Yrotation Zrotation
            JOINT rAnkle
            {
                OFFSET   0.000000  -0.390000   0.000000
                CHANNELS 3 Xrotation Yrotation Zrotation
                JOINT rToeJoint
                {
                    OFFSET   0.000000  -0.050000   0.130000
                    CHANNELS 3 Xrotation Yrotation Zrotation
                    End Site
                    {
                        OFFSET  -0.010000   0.002000   0.060000
                    }
                }
            }
        }
    }
    JOINT pelvis_lowerback
    {
        OFFSET   0.000000   0.093605   0.000000
        CHANNELS 3 Xrotation Yrotation Zrotation
        JOINT lowerback_torso
        {
            OFFSET   0.000000   0.100000   0.000000
            CHANNELS 3 Xrotation Yrotation Zrotation
            JOINT torso_head
            {
                OFFSET   0.000000   0.282350   0.000000
                CHANNELS 3 Xrotation Yrotation Zrotation
                End Site
                {
                    OFFSET   0.000000   0.192650   0.000000
                }
            }
            JOINT lTorso_Clavicle
            {
                OFFSET   0.001000   0.157500   0.000000
                CHANNELS 3 Xrotation Yrotation Zrotation
                JOINT lShoulder
                {
                    OFFSET   0.117647   0.000000   0.000000
                    CHANNELS 3 Xrotation Yrotation Zrotation
                    JOINT lElbow
                    {
                        OFFSET   0.245000   0.000000   0.000000
                        CHANNELS 3 Xrotation Yrotation Zrotation
                        JOINT lWrist
                        {
                            OFFSET   0.240000   0.000000   0.000000
                            CHANNELS 3 Xrotation Yrotation Zrotation
                            End Site
                            {
                                OFFSET   0.116353  -0.002500   0.000000
                            }
                        }
                    }
                }
            }
            JOINT rTorso_Clavicle
            {
                OFFSET  -0.001000   0.157500   0.000000
                CHANNELS 3 Xrotation Yrotation Zrotation
                JOINT rShoulder
                {
                    OFFSET  -0.117647   0.000000   0.000000
                    CHANNELS 3 Xrotation Yrotation Zrotation
                    JOINT rElbow
                    {
                        OFFSET  -0.245000   0.000000   0.000000
                        CHANNELS 3 Xrotation Yrotation Zrotation
                        JOINT rWrist
                        {
                            OFFSET  -0.240000   0.000000   0.000000
                            CHANNELS 3 Xrotation Yrotation Zrotation
                            End Site
                            {
                                OFFSET  -0.116353  -0.002500   0.000000
                            }
                        }
                    }
                }
            }
        }
    }
}
MOTION
Frames: 8
Frame Time:   0.010000
  3.141593   3.141593   3.141593   7.292467 -37.792255  -3.696421 -22.831611  27.166331   3.438508  48.132393   0.728756   5.019638   0.599995  -1.216885  -0.358004  -5.177433  -3.081763  -3.574627 -32.700922 -22.440655   0.065755  46.182056  -7.624787 -10.596335   5.109503  -3.188027  -2.588041  -1.991331  -1.002834  -4.611574  -0.191556  -2.812354  -0.948101  12.391311  -1.673677   6.224216  23.344747  -5.080765   0.373963  -5.876888  -2.800445 -32.157704  16.531491 -48.785700 -64.113102  -2.210652 -54.375189  10.298323   9.285525   8.282600 -14.477834  -8.828683  -6.501412  31.601280  20.758635  38.533979  63.752995  -1.069422  50.447586 -13.487708   8.830652   5.505764 -11.820159
  3.141593   3.141593   3.141593  13.915713 -53.931745   9.145466 -30.105103  18.405333  10.415886  54.108347  -2.340945   6.739271   3.202798  -3.947343 -11.056353  -3.075194  -3.721594  -4.412355 -21.857787 -20.966575  -0.053121  45.503615   1.039559 -11.157439  -3.900006  -2.141266   1.502535  -0.128627  -1.050918  -5.800389   1.108807  -3.020776  -1.902499  13.373317  -4.419498   0.192337  31.874200 -13.133382  10.231235  -5.464800  -3.575077 -26.486090  37.671840 -42.418213 -33.643492  -2.538131 -42.340856   9.562776   7.725365   6.543989 -12.508593  -7.825291  -5.743680  29.818737  22.671341  41.079569  65.819600  -3.097270  57.788036 -12.756965  16.674391   4.635057  -5.856641
  3.141593   3.141593   3.141593   5.074981 -45.641646  -5.590310 -37.051361  21.333408   7.808736  51.168541  -1.799009   6.425882   1.335706  -3.735537  -5.349227  -4.859702  -3.216267  -3.417750 -26.428562 -20.798194   0.130274  48.506853  -2.490562 -10.513110  -1.913193  -3.511759   5.455086  -1.918577  -2.450126  -5.734476  -0.315112  -1.778436  -1.821822   9.776772  -1.367737   0.934474  23.329036  -3.751496  -2.025374  -3.970044  -1.179652 -30.465401  18.526861 -46.122663 -66.027136  -4.228422 -54.446544   5.696772   9.932529   7.664524 -10.983359  -8.028984  -3.218181  26.526132  22.797159  37.289257  63.195845  -5.730106  53.183206 -10.546779  18.824702   6.331461  -8.207482
  3.141593   3.141593   3.141593  12.998731 -68.332469  11.887985 -32.545905  18.878920   4.294673  46.577358  -1.005471   8.476574  -0.783274  -2.027612  -8.605669  -4.638167  -3.569922  -4.711843 -24.871366 -14.521908   3.164430  43.528259  -1.241340  -9.255640  -5.700819  -2.685342  -2.029588  -3.446128  -1.191805  -4.340542   1.134263  -1.810504  -0.854282  11.680310  -2.628639   3.607469  22.382080 -14.210621   2.585317  -6.687388  -0.735889 -32.029310  15.516485 -44.348147 -65.970253  -1.852792 -51.432253   9.388494   2.432551   5.317871  -8.815527  -7.947066  -3.455379  29.071049  23.219928  39.769386  60.602904  -3.883322  50.072090 -12.977270  13.675091   4.275435  -6.915805
  3.141593   3.141593   3.141593  11.208694 -26.346544   2.253278 -32.356355  15.026291   5.388869  52.767015  -2.039905   9.162497  -1.509091  -2.862703  -3.738604  -6.612983  -3.823903  -3.778680 -26.053464 -17.896574   0.714590  45.564623  -3.854361 -10.168065  -0.433279  -5.435383  -0.669230  -2.264904  -1.280757  -5.113134   0.061197  -1.092424  -2.792281  12.545942  -2.886921   4.788855  21.540333  -8.796881   3.649816  -4.633624  -2.014635 -30.117459  26.349860 -42.214689 -55.291539  -2.210724 -42.983204   4.997219  11.435351  11.802256 -20.395284  -8.726248  -5.612430  28.105135  23.010727  40.181309  64.196837  -2.206849  50.243712 -13.358009  11.283415   4.609205  -5.262988
  3.141593   3.141593   3.141593   6.584306 -52.742940  -1.203569 -36.418511  23.059881   4.392262  58.342463  -2.775875   8.319692   5.621309  -6.372051  -7.411195  -5.527703  -3.484674  -4.611362 -25.520500 -22.704656   4.474949  48.881517  -2.884890 -10.993585  -4.908416  -4.207741   3.509770  -2.505647   0.073573  -4.449755   0.013692  -3.886230  -2.206896  15.556739  -2.897703   4.367939  23.552699  -9.902469   3.336113  -6.522932  -5.026745 -31.577360  19.868633 -49.150768 -61.429401   0.286088 -57.795613  12.103716  15.775298   4.820180 -12.154052 -10.037716  -1.630546  28.651304  22.536586  44.007687  64.114457  -4.722024  54.219982 -10.932480  15.103032   4.932526  -8.979266
  3.141593   3.141593   3.141593  35.995710 -80.229836  33.254017 -30.703670  20.869488   7.261676  55.001521   1.082062   5.731930   1.055495   0.477071  -7.992614  -4.950612  -3.396511  -1.852640 -24.561601 -26.015188   2.949828  38.146375  -2.309102  -9.889306   4.248262  -5.134401   1.019269  -2.291867  -0.574259  -5.165887   0.717564  -3.467882  -3.388424  13.183556  -2.074072   1.888615  21.612510  -6.288658   2.320194  -4.934142  -3.881688 -31.887578  15.240292 -47.894506 -66.272447  -1.100709 -56.442474  11.604113  16.756279   7.953338 -16.602785  -9.335449  -3.988493  30.696467  21.674889  40.894529  64.554033  -3.615678  53.592521 -13.611514  13.623095   5.130815 -11.994101
  3.141593   3.141593   3.141593 109.691439 -84.411822 107.963169 -30.489571  16.216222   7.235609  52.434644   0.464995   9.087090  -3.647930  -2.009795  -4.319295  -4.896687  -3.905136  -3.842148 -26.654289 -13.858333  -5.715737  46.107147   1.573817  -8.908830   0.002016  -1.947875   4.422188  -4.228719  -1.633906  -6.204900  -0.639182  -2.217961  -3.127026  12.030129  -5.184079   3.629279  28.477010 -11.256470   2.807956  -6.717687  -3.977011 -31.084285  23.666780 -49.043990 -59.326723  -1.856233 -48.359647   4.394770   8.461443   8.693824 -13.893752  -8.737999  -6.693952  30.428532  23.557283  39.102021  64.424059  -2.792243  52.877971 -12.790030  13.188307   4.892984  -8.187341
